<?xml version="1.0" encoding="UTF-8"?>
<svg id="c" data-name="iop" xmlns="http://www.w3.org/2000/svg" viewBox="0 0 403.63 247.08">
  <defs>
    <style>
      .l {
        fill: #fff;
      }

      .m {
        fill: #ee3d3a;
      }
    </style>
  </defs>
  <g>
    <path class="l" d="M174.35,102.6c-13.46,0-24.31,9.55-24.31,25.03s10.85,25.03,24.31,25.03,24.6-10.13,24.6-25.03-11-25.03-24.6-25.03Z"/>
    <path class="l" d="M276.47,102.6c-13.31,0-24.31,9.84-24.31,25.18s11,25.18,24.31,25.18,24.6-9.84,24.6-25.18-11.14-25.18-24.6-25.18Z"/>
    <path class="l" d="M42.26,25.11v196.86h319.11V25.11H42.26ZM105.96,167.9h-18.24l18.24-79.92h18.24l-18.24,79.92ZM174.35,169.74c-23.44,0-42.54-19.1-42.54-42.11s19.1-42.11,42.54-42.11,42.54,18.52,42.54,42.11-19.1,42.11-42.54,42.11ZM278.25,170.03c-13.17,0-23.73-5.64-30.68-17.65h-.58v38.2h-18.23v-102.89h17.8v16.21h.58c4.92-11.14,17.37-18.38,31.11-18.38,21.71,0,38.49,18.81,38.49,42.25s-16.79,42.25-38.49,42.25Z"/>
  </g>
  <rect class="m" x="86.89" y="56.5" width="18.97" height="18.97"/>
</svg>