<?xml version="1.0" encoding="UTF-8"?>
<svg id="c" data-name="iop" xmlns="http://www.w3.org/2000/svg" viewBox="0 0 403.63 288.02">
  <defs>
    <style>
      .m {
        fill: #fff;
      }
    </style>
  </defs>
  <g>
    <g>
      <path class="m" d="M174.35,97.65c-13.46,0-24.31,9.55-24.31,25.03s10.85,25.03,24.31,25.03,24.6-10.13,24.6-25.03-11-25.03-24.6-25.03Z"/>
      <path class="m" d="M276.47,97.65c-13.31,0-24.31,9.84-24.31,25.18s11,25.18,24.31,25.18,24.6-9.84,24.6-25.18-11.14-25.18-24.6-25.18Z"/>
    </g>
    <path class="m" d="M42.26,20.16v196.86h319.11V20.16H42.26ZM86.89,51.55h18.97v18.97h-18.97s0-18.97,0-18.97ZM105.96,162.95h-18.24l18.24-79.92h18.24l-18.24,79.92ZM174.35,164.79c-23.44,0-42.54-19.1-42.54-42.11s19.1-42.11,42.54-42.11,42.54,18.52,42.54,42.11-19.1,42.11-42.54,42.11ZM278.25,165.08c-13.17,0-23.73-5.64-30.68-17.65h-.58v38.2h-18.23v-102.89h17.8v16.21h.58c4.92-11.14,17.37-18.38,31.11-18.38,21.71,0,38.49,18.81,38.49,42.25s-16.79,42.25-38.49,42.25Z"/>
  </g>
  <g>
    <g id="d" data-name="arlo dark">
      <path class="m" d="M296.1,252.73c0-2.15-1.78-3.97-3.97-3.97-2.19,0-4.01,1.82-4.01,3.97,0,2.19,1.82,4.01,4.01,4.01,2.19,0,3.97-1.82,3.97-4.01ZM284.23,252.73c0-4.84,3.68-8.03,7.78-8.03,1.86,0,3.68.62,4.68,1.78h.12s-1.7-4.76-1.7-4.76h-7.82s0-4.39,0-4.39h11.34s7.95,22.89,7.95,22.89h-5.34s-1.66-4.88-1.66-4.88h-.17c-.33,3.23-3.81,5.51-7.08,5.51-4.47,0-8.11-3.6-8.11-8.11Z"/>
      <rect class="m" x="356.24" y="255.09" width="5.13" height="5.13"/>
      <path class="m" d="M306.59,237.33h13.78s0,4.84,0,4.84h-8.57s0,18.05,0,18.05h-5.22s0-22.89,0-22.89Z"/>
      <path class="m" d="M323.16,230.87h5.13s0,29.35,0,29.35h-5.13s0-29.35,0-29.35Z"/>
      <path class="m" d="M331.33,249.09c0-6.58,5.33-11.75,11.88-11.75,6.54,0,11.88,5.17,11.88,11.75,0,6.42-5.33,11.75-11.88,11.75-6.54,0-11.88-5.33-11.88-11.75ZM349.75,249.09c0-4.12-2.93-6.66-6.55-6.66-3.58,0-6.47,2.54-6.47,6.66,0,3.97,2.89,6.66,6.47,6.66,3.62,0,6.55-2.7,6.55-6.66Z"/>
    </g>
    <g>
      <path class="m" d="M42.26,239.47h2.37v4.79c1.76-3.23,5.04-5.28,9.01-5.28,6.1,0,10.64,4.71,10.64,10.93s-4.54,10.93-10.64,10.93c-3.97,0-7.25-2.05-9.01-5.28v12.57h-2.37v-28.66ZM61.83,249.91c0-4.91-3.68-8.64-8.6-8.64s-8.6,3.73-8.6,8.64,3.68,8.64,8.6,8.64,8.6-3.73,8.6-8.64Z"/>
      <path class="m" d="M68.05,249.91c0-6.22,4.75-10.93,11.05-10.93s11.01,4.71,11.01,10.93-4.75,10.93-11.01,10.93-11.05-4.71-11.05-10.93ZM87.66,249.91c0-4.91-3.64-8.64-8.56-8.64s-8.6,3.73-8.6,8.64,3.68,8.64,8.6,8.64,8.56-3.73,8.56-8.64Z"/>
      <path class="m" d="M91.83,239.47h2.7l6.47,18.09,6.63-18.09h2.5l6.59,18.05,6.47-18.05h2.62l-7.82,20.88h-2.54l-6.63-18.14-6.63,18.14h-2.54l-7.82-20.88Z"/>
      <path class="m" d="M127.53,249.91c0-6.22,4.75-10.93,11.01-10.93s11.05,4.71,11.05,10.93c0,.33-.04.7-.08.98h-19.49c.45,4.5,3.97,7.74,8.68,7.74,3.52,0,6.55-1.8,7.86-4.5h2.66c-1.6,4.01-5.69,6.71-10.56,6.71-6.39,0-11.14-4.71-11.14-10.93ZM130.03,248.76h17.07c-.41-4.18-3.85-7.57-8.56-7.57s-7.98,3.15-8.52,7.57Z"/>
      <path class="m" d="M154.59,239.47h2.37v4.54c1.56-3.03,4.42-4.87,8.11-4.87h.53v2.46h-.53c-4.95,0-8.11,3.11-8.11,7.94v10.81h-2.37v-20.88Z"/>
      <path class="m" d="M167,249.91c0-6.22,4.75-10.93,11.01-10.93s11.05,4.71,11.05,10.93c0,.33-.04.7-.08.98h-19.49c.45,4.5,3.97,7.74,8.68,7.74,3.52,0,6.55-1.8,7.86-4.5h2.66c-1.6,4.01-5.69,6.71-10.56,6.71-6.39,0-11.14-4.71-11.14-10.93ZM169.49,248.76h17.07c-.41-4.18-3.85-7.57-8.56-7.57s-7.98,3.15-8.52,7.57Z"/>
      <path class="m" d="M192.75,249.91c0-6.22,4.54-10.93,10.6-10.93,4.01,0,7.25,2.05,9.01,5.28v-13.39h2.37v29.48h-2.37v-4.79c-1.76,3.23-4.99,5.28-9.01,5.28-6.06,0-10.6-4.71-10.6-10.93ZM212.35,249.91c0-4.91-3.68-8.64-8.6-8.64s-8.56,3.73-8.56,8.64,3.68,8.64,8.56,8.64,8.6-3.73,8.6-8.64Z"/>
      <path class="m" d="M232,230.87h2.37v13.39c1.76-3.23,5.04-5.28,9.01-5.28,6.1,0,10.64,4.71,10.64,10.93s-4.54,10.93-10.64,10.93c-3.97,0-7.25-2.05-9.01-5.28v4.79h-2.37v-29.48ZM251.57,249.91c0-4.91-3.68-8.64-8.6-8.64s-8.6,3.73-8.6,8.64,3.68,8.64,8.6,8.64,8.6-3.73,8.6-8.64Z"/>
      <path class="m" d="M265.04,260.35l-9.46-20.88h2.74l8.06,18.14,8.06-18.14h2.66l-13.02,28.66h-2.58l3.52-7.78Z"/>
    </g>
  </g>
</svg>