<?xml version="1.0" encoding="UTF-8"?>
<svg id="d" data-name="horizontal" xmlns="http://www.w3.org/2000/svg" viewBox="0 0 1058.68 238.41">
  <defs>
    <style>
      .n {
        fill: #ee3d3a;
      }
    </style>
  </defs>
  <g id="e" data-name="standard-v2">
    <g id="f" data-name="horizontal-v2-dark">
      <g id="g" data-name="arlo dark">
        <path d="M938.58,176.28c0-1.23-1.02-2.28-2.28-2.28-1.26,0-2.3,1.04-2.3,2.28,0,1.26,1.04,2.3,2.3,2.3s2.28-1.04,2.28-2.3ZM931.79,176.28c0-2.77,2.11-4.6,4.46-4.6,1.07,0,2.11.36,2.68,1.02h.07s-.97-2.73-.97-2.73h-4.48s0-2.51,0-2.51h6.5s4.55,13.11,4.55,13.11h-3.06s-.95-2.8-.95-2.8h-.09c-.19,1.85-2.18,3.15-4.05,3.15-2.56,0-4.65-2.06-4.65-4.65Z"/>
        <rect class="n" x="973.04" y="177.63" width="2.94" height="2.94"/>
        <path d="M944.59,167.46h7.9s0,2.77,0,2.77h-4.91v10.34s-2.99,0-2.99,0v-13.11Z"/>
        <path d="M954.09,163.76h2.94s0,16.81,0,16.81h-2.94s0-16.81,0-16.81Z"/>
        <path d="M958.77,174.19c0-3.77,3.05-6.73,6.8-6.73,3.75,0,6.8,2.96,6.8,6.73,0,3.68-3.05,6.73-6.8,6.73-3.75,0-6.8-3.05-6.8-6.73ZM969.32,174.19c0-2.36-1.68-3.82-3.75-3.82s-3.71,1.46-3.71,3.82c0,2.27,1.66,3.82,3.71,3.82s3.75-1.54,3.75-3.82Z"/>
      </g>
      <g>
        <path d="M792.57,168.69h1.36v2.74c1.01-1.85,2.88-3.02,5.16-3.02,3.49,0,6.1,2.7,6.1,6.26s-2.6,6.26-6.1,6.26c-2.27,0-4.15-1.17-5.16-3.03v7.2h-1.36v-16.42ZM803.78,174.67c0-2.81-2.11-4.95-4.92-4.95s-4.92,2.13-4.92,4.95,2.11,4.95,4.92,4.95,4.92-2.13,4.92-4.95Z"/>
        <path d="M807.35,174.67c0-3.56,2.72-6.26,6.33-6.26s6.31,2.7,6.31,6.26-2.72,6.26-6.31,6.26-6.33-2.7-6.33-6.26ZM818.58,174.67c0-2.81-2.09-4.95-4.9-4.95s-4.92,2.13-4.92,4.95,2.11,4.95,4.92,4.95,4.9-2.13,4.9-4.95Z"/>
        <path d="M820.97,168.69h1.55l3.7,10.37,3.8-10.37h1.43l3.78,10.34,3.71-10.34h1.5l-4.48,11.96h-1.45l-3.8-10.39-3.8,10.39h-1.45l-4.48-11.96Z"/>
        <path d="M841.42,174.67c0-3.56,2.72-6.26,6.31-6.26s6.33,2.7,6.33,6.26c0,.19-.02.4-.05.56h-11.16c.26,2.58,2.27,4.43,4.97,4.43,2.02,0,3.75-1.03,4.5-2.58h1.52c-.91,2.3-3.26,3.85-6.05,3.85-3.66,0-6.38-2.7-6.38-6.26ZM842.85,174.01h9.78c-.23-2.39-2.2-4.34-4.9-4.34s-4.57,1.81-4.88,4.34Z"/>
        <path d="M856.93,168.69h1.36v2.6c.89-1.74,2.53-2.79,4.64-2.79h.3v1.41h-.3c-2.84,0-4.64,1.78-4.64,4.55v6.19h-1.36v-11.96Z"/>
        <path d="M864.03,174.67c0-3.56,2.72-6.26,6.31-6.26s6.33,2.7,6.33,6.26c0,.19-.02.4-.05.56h-11.16c.26,2.58,2.27,4.43,4.97,4.43,2.02,0,3.75-1.03,4.5-2.58h1.52c-.91,2.3-3.26,3.85-6.05,3.85-3.66,0-6.38-2.7-6.38-6.26ZM865.46,174.01h9.78c-.23-2.39-2.2-4.34-4.9-4.34s-4.57,1.81-4.88,4.34Z"/>
        <path d="M878.79,174.67c0-3.56,2.6-6.26,6.07-6.26,2.3,0,4.15,1.17,5.16,3.02v-7.67h1.36v16.88h-1.36v-2.74c-1.01,1.85-2.86,3.03-5.16,3.03-3.47,0-6.07-2.7-6.07-6.26ZM890.02,174.67c0-2.81-2.11-4.95-4.92-4.95s-4.9,2.13-4.9,4.95,2.11,4.95,4.9,4.95,4.92-2.13,4.92-4.95Z"/>
        <path d="M901.28,163.76h1.36v7.67c1.01-1.85,2.88-3.02,5.16-3.02,3.49,0,6.1,2.7,6.1,6.26s-2.6,6.26-6.1,6.26c-2.27,0-4.15-1.17-5.16-3.03v2.74h-1.36v-16.88ZM912.49,174.67c0-2.81-2.11-4.95-4.92-4.95s-4.92,2.13-4.92,4.95,2.11,4.95,4.92,4.95,4.92-2.13,4.92-4.95Z"/>
        <path d="M920.21,180.65l-5.42-11.96h1.57l4.62,10.39,4.62-10.39h1.52l-7.46,16.42h-1.48l2.02-4.46Z"/>
      </g>
      <path d="M99.32,80.74h15.9l-15.9,69.64h-15.9l15.9-69.64Z"/>
      <path d="M122.16,80.61h15.14v12.24h.63c3.66-8.07,10.72-14.13,21.45-14.13,17.28,0,25.23,11.99,25.23,27.63v44.15h-15.39v-40.12c0-9.59-4.54-17.16-14.63-17.16-11.1,0-16.78,8.96-16.78,18.55v38.73h-15.64v-69.89Z"/>
      <path d="M190.53,80.61h16.65l17.16,47.56,17.28-47.43h16.65l-25.48,69.76h-16.9l-25.36-69.89Z"/>
      <path d="M260.04,115.3c0-20.44,16.65-36.46,37.97-36.46s37.97,16.02,37.97,36.96c0,1.14-.13,3.15-.5,5.05h-58.54c1.77,9.59,10.72,16.78,21.32,16.78,8.33,0,15.26-3.91,18.55-10.98h17.41c-4.92,15.01-18.8,25.74-36.21,25.74-21.32,0-37.97-16.65-37.97-37.09ZM318.45,108.87c-1.39-8.33-9.59-15.26-20.69-15.26s-19.43,6.43-20.56,15.26h41.25Z"/>
      <path d="M342.55,130.06h15.77c.13,4.54,4.67,7.82,10.47,7.82,6.18,0,10.09-3.03,10.09-7.57,0-5.8-6.18-7.06-12.49-8.7-13.12-3.28-22.46-8.7-22.46-21.45,0-11.99,10.85-21.32,25.11-21.32s25.1,9.46,25.1,21.83l-15.77-.13c0-4.67-4.42-7.32-9.34-7.32s-9.34,2.52-9.34,6.81c0,5.17,6.06,6.43,12.36,8.07,9.34,2.4,22.2,5.55,22.2,21.95,0,12.36-11.61,22.33-25.74,22.33-14.89,0-25.99-10.09-25.99-22.33Z"/>
      <path d="M410.92,95.5h-10.72v-14.76h10.72v-19.68h15.77v19.68h11.1v14.76h-11.1v40.24h10.72v14.76h-26.49v-55Z"/>
      <rect class="n" x="82.71" y="53.31" width="16.53" height="16.53"/>
      <path d="M472.76,115.74c0-20.53,16.63-36.66,37.03-36.66s37.03,16.12,37.03,36.66-16.63,36.66-37.03,36.66-37.03-16.63-37.03-36.66ZM531.21,115.74c0-13.48-9.57-21.79-21.41-21.79s-21.16,8.31-21.16,21.79,9.45,21.79,21.16,21.79,21.41-8.82,21.41-21.79Z"/>
      <path d="M577.18,76.06v16.12h16.63v14.86h-16.63v43.46h-15.75v-43.46h-10.45v-14.86h10.45v-30.99h33.76v14.86h-18.01Z"/>
      <path d="M626.18,76.06v16.12h16.63v14.86h-16.63v43.46h-15.75v-43.46h-10.46v-14.86h10.46v-30.99h33.76v14.86h-18.01Z"/>
      <path d="M650.62,109.44h41.69v13.98h-41.69v-13.98Z"/>
      <path d="M704.53,80.84h15.49v14.11h.5c4.28-9.7,15.12-16,27.08-16,18.89,0,33.51,16.38,33.51,36.78s-14.61,36.78-33.51,36.78c-11.46,0-20.66-4.91-26.7-15.37h-.5v33.25h-15.87v-89.56ZM767.87,115.74c0-13.35-9.7-21.92-21.41-21.92s-21.16,8.57-21.16,21.92,9.57,21.92,21.16,21.92,21.41-8.57,21.41-21.92Z"/>
      <path d="M792.83,61.19h15.62v89.31h-15.62V61.19Z"/>
      <path d="M820.04,115.61c0-20.41,14.61-36.78,34.39-36.78,12.34,0,21.92,6.68,26.33,15.87h.5v-13.86h15.37v69.66h-15.37v-13.6h-.5c-6.05,10.96-15.12,15.49-26.33,15.49-19.78,0-34.39-16.38-34.39-36.78ZM875.99,115.61c0-12.6-8.69-21.92-21.29-21.92s-21.04,9.32-21.04,21.92,8.57,21.92,21.04,21.92,21.29-9.45,21.29-21.92Z"/>
      <path d="M913.63,80.72h15.12v12.22h.63c3.65-8.06,10.71-14.11,21.41-14.11,17.26,0,25.19,11.97,25.19,27.59v44.09h-15.37v-40.06c0-9.57-4.53-17.13-14.61-17.13-11.08,0-16.75,8.94-16.75,18.52v38.67h-15.62v-69.78Z"/>
    </g>
  </g>
</svg>