<?xml version="1.0" encoding="UTF-8"?>
<svg id="g" data-name="stacked" xmlns="http://www.w3.org/2000/svg" viewBox="0 0 1058.68 541.29">
  <defs>
    <style>
      .m {
        fill: #fff;
      }
    </style>
  </defs>
  <g id="k" data-name="stacked">
    <g id="l" data-name="stacked-white">
      <g>
        <path class="m" d="M116.38,118.53h28.63l-28.63,125.43h-28.63l28.63-125.43Z"/>
        <path class="m" d="M157.51,118.31h27.27v22.04h1.14c6.59-14.54,19.31-25.45,38.63-25.45,31.13,0,45.45,21.59,45.45,49.76v79.53h-27.72v-72.26c0-17.27-8.18-30.9-26.36-30.9-20,0-30.22,16.13-30.22,33.4v69.76h-28.18v-125.89Z"/>
        <path class="m" d="M280.67,118.31h30l30.9,85.67,31.13-85.44h29.99l-45.9,125.66h-30.45l-45.67-125.89Z"/>
        <path class="m" d="M405.87,180.8c0-36.81,30-65.67,68.4-65.67s68.4,28.86,68.4,66.58c0,2.05-.23,5.68-.91,9.09h-105.44c3.18,17.27,19.31,30.22,38.4,30.22,15,0,27.5-7.04,33.4-19.77h31.36c-8.86,27.04-33.86,46.36-65.22,46.36-38.4,0-68.4-30-68.4-66.81ZM511.08,169.21c-2.5-15-17.27-27.5-37.27-27.5s-34.99,11.59-37.04,27.5h74.31Z"/>
        <path class="m" d="M554.48,207.38h28.4c.23,8.18,8.41,14.09,18.86,14.09,11.13,0,18.18-5.45,18.18-13.63,0-10.45-11.13-12.73-22.5-15.68-23.63-5.91-40.45-15.68-40.45-38.63,0-21.59,19.54-38.4,45.22-38.4s45.22,17.04,45.22,39.31l-28.4-.23c0-8.41-7.95-13.18-16.81-13.18s-16.82,4.55-16.82,12.27c0,9.32,10.91,11.59,22.27,14.54,16.81,4.32,39.99,10,39.99,39.54,0,22.27-20.91,40.22-46.36,40.22-26.81,0-46.81-18.18-46.81-40.22Z"/>
        <path class="m" d="M677.64,145.12h-19.31v-26.59h19.31v-35.45h28.4v35.45h20v26.59h-20v72.49h19.32v26.59h-47.72v-99.07Z"/>
        <path class="m" d="M75.45,373.53c0-37.04,30-66.13,66.81-66.13s66.81,29.09,66.81,66.13-30,66.13-66.81,66.13-66.81-30-66.81-66.13ZM180.89,373.53c0-24.31-17.27-39.31-38.63-39.31s-38.18,15-38.18,39.31,17.04,39.31,38.18,39.31,38.63-15.91,38.63-39.31Z"/>
        <path class="m" d="M263.83,301.95v29.09h30v26.81h-30v78.4h-28.4v-78.4h-18.86v-26.81h18.86v-55.9h60.9v26.81h-32.49Z"/>
        <path class="m" d="M352.22,301.95v29.09h29.99v26.81h-29.99v78.4h-28.4v-78.4h-18.86v-26.81h18.86v-55.9h60.9v26.81h-32.49Z"/>
        <path class="m" d="M396.3,362.17h75.22v25.22h-75.22v-25.22Z"/>
        <path class="m" d="M493.55,310.59h27.95v25.45h.91c7.73-17.5,27.27-28.86,48.86-28.86,34.09,0,60.45,29.54,60.45,66.35s-26.36,66.35-60.45,66.35c-20.68,0-37.27-8.86-48.17-27.72h-.91v59.99h-28.63v-161.56ZM608.4,373.53c0-24.09-17.5-39.54-38.63-39.54s-38.18,15.45-38.18,39.54,17.27,39.54,38.18,39.54,38.63-15.45,38.63-39.54Z"/>
        <path class="m" d="M652.84,275.14h28.18v161.11h-28.18v-161.11Z"/>
        <path class="m" d="M701.92,373.3c0-36.81,26.36-66.35,62.03-66.35,22.27,0,39.54,12.04,47.49,28.63h.91v-25h27.72v125.66h-27.72v-24.54h-.91c-10.91,19.77-27.27,27.95-47.49,27.95-35.68,0-62.03-29.54-62.03-66.35ZM802.27,373.3c0-22.72-15.68-39.54-38.4-39.54s-37.95,16.81-37.95,39.54,15.45,39.54,37.95,39.54,38.4-17.04,38.4-39.54Z"/>
        <path class="m" d="M870.76,310.36h27.27v22.04h1.14c6.59-14.54,19.31-25.45,38.63-25.45,31.13,0,45.45,21.59,45.45,49.77v79.53h-27.72v-72.26c0-17.27-8.18-30.9-26.36-30.9-20,0-30.22,16.13-30.22,33.4v69.76h-28.18v-125.89Z"/>
      </g>
      <rect class="m" x="86.45" y="69.14" width="29.77" height="29.77"/>
    </g>
  </g>
</svg>