<?xml version="1.0" encoding="UTF-8"?>
<svg id="g" data-name="stacked" xmlns="http://www.w3.org/2000/svg" viewBox="0 0 1058.68 541.29">
  <defs>
    <style>
      .n {
        fill: #fff;
      }

      .o {
        fill: #ee3d3a;
      }
    </style>
  </defs>
  <g id="h" data-name="stacked cutout-v2">
    <g id="i" data-name="stacked-cutout-red-w/ white arlo logo">
      <g>
        <path class="o" d="M260.64,292.43c-14.67,0-26.5,10.41-26.5,27.29s11.83,27.29,26.5,27.29,26.82-11.04,26.82-27.29-11.99-27.29-26.82-27.29Z"/>
        <path class="o" d="M490.8,158.8c-13.88,0-24.29,8.04-25.71,19.09h51.58c-1.73-10.41-11.99-19.09-25.87-19.09Z"/>
        <path class="o" d="M557.24,292.27c-14.51,0-26.5,10.73-26.5,27.45s11.99,27.45,26.5,27.45,26.81-10.73,26.81-27.45-12.15-27.45-26.81-27.45Z"/>
        <path class="o" d="M692.3,292.11c-15.62,0-26.34,11.67-26.34,27.45s10.73,27.45,26.34,27.45,26.66-11.83,26.66-27.45-10.88-27.45-26.66-27.45Z"/>
        <path class="o" d="M141.83,64.12v368.36h775.02V64.12H141.83ZM618.88,142.71h13.41v-24.61h19.72v24.61h13.88v18.46h-13.88v50.32h13.41v18.46h-33.13v-68.77h-13.41v-18.46ZM377.55,142.55l21.45,59.47,21.61-59.31h20.82l-31.86,87.23h-21.14l-31.71-87.39h20.82ZM262.56,142.71l-19.88,87.07h-19.88l19.88-87.07h19.88ZM221.91,108.42h20.66v20.66h-20.66v-20.66ZM260.64,365.62c-25.55,0-46.37-20.82-46.37-45.9s20.82-45.9,46.37-45.9,46.37,20.19,46.37,45.9-20.82,45.9-46.37,45.9ZM290.79,181.51v48.43h-19.56v-87.39h18.93v15.3h.79c4.57-10.1,13.41-17.67,26.82-17.67,21.61,0,31.55,14.99,31.55,34.54v55.21h-19.24v-50.16c0-11.99-5.68-21.45-18.3-21.45-13.88,0-20.98,11.2-20.98,23.19ZM367.59,270.03h-22.56v20.19h20.82v18.61h-20.82v54.42h-19.72v-54.42h-13.09v-18.61h13.09v-38.8h42.27v18.61ZM428.95,270.03h-22.56v20.19h20.82v18.61h-20.82v54.42h-19.72v-54.42h-13.09v-18.61h13.09v-38.8h42.27v18.61ZM489.2,329.34h-52.21v-17.51h52.21v17.51ZM443.64,185.93c0-25.55,20.82-45.59,47.48-45.59s47.48,20.03,47.48,46.22c0,1.42-.16,3.94-.63,6.31h-73.19c2.21,11.99,13.41,20.98,26.66,20.98,10.41,0,19.09-4.89,23.19-13.72h21.77c-6.15,18.77-23.5,32.18-45.27,32.18-26.66,0-47.48-20.82-47.48-46.37ZM558.44,365.78c-14.35,0-25.87-6.15-33.44-19.24h-.63v41.64h-19.87v-112.15h19.4v17.67h.63c5.36-12.15,18.93-20.03,33.91-20.03,23.66,0,41.96,20.51,41.96,46.06s-18.3,46.06-41.96,46.06ZM579.29,232.3c-18.61,0-32.49-12.62-32.49-27.92h19.72c.16,5.68,5.84,9.78,13.09,9.78,7.73,0,12.62-3.79,12.62-9.46,0-7.26-7.73-8.83-15.62-10.88-16.4-4.1-28.08-10.88-28.08-26.81,0-14.99,13.57-26.66,31.39-26.66s31.39,11.83,31.39,27.29l-19.72-.16c0-5.84-5.52-9.15-11.67-9.15s-11.67,3.16-11.67,8.52c0,6.47,7.57,8.04,15.46,10.1,11.67,3,27.76,6.94,27.76,27.45,0,15.46-14.51,27.92-32.18,27.92ZM634.63,363.25h-19.56v-111.84h19.56v111.84ZM745.04,363.25h-19.24v-17.04h-.63c-7.57,13.72-18.93,19.4-32.97,19.4-24.76,0-43.06-20.51-43.06-46.06s18.3-46.06,43.06-46.06c15.46,0,27.45,8.36,32.97,19.88h.63v-17.35h19.24v87.23ZM844.42,363.25h-19.24v-50.16c0-11.99-5.68-21.45-18.3-21.45-13.88,0-20.98,11.2-20.98,23.19v48.43h-19.56v-87.39h18.93v15.3h.79c4.57-10.1,13.41-17.67,26.81-17.67,21.61,0,31.55,14.98,31.55,34.54v55.21Z"/>
      </g>
      <g>
        <g id="j" data-name="arlo dark">
          <path class="n" d="M848.5,466.66c0-2.25-1.86-4.16-4.16-4.16-2.3,0-4.2,1.91-4.2,4.16s1.91,4.2,4.2,4.2,4.16-1.91,4.16-4.2ZM836.08,466.66c0-5.07,3.86-8.41,8.15-8.41,1.95,0,3.86.65,4.9,1.86h.13s-1.78-4.98-1.78-4.98h-8.19s0-4.59,0-4.59h11.88s8.32,23.97,8.32,23.97h-5.59s-1.73-5.11-1.73-5.11h-.17c-.35,3.38-3.99,5.76-7.41,5.76-4.68,0-8.5-3.77-8.5-8.5Z"/>
          <rect class="o" x="911.48" y="469.13" width="5.37" height="5.37"/>
          <path class="n" d="M859.48,450.54h14.43s0,5.07,0,5.07h-8.97s0,18.9,0,18.9h-5.46s0-23.97,0-23.97Z"/>
          <path class="n" d="M876.85,443.78h5.37s0,30.73,0,30.73h-5.37s0-30.73,0-30.73Z"/>
          <path class="n" d="M885.39,462.85c0-6.9,5.58-12.31,12.44-12.31,6.85,0,12.44,5.41,12.44,12.31,0,6.73-5.58,12.31-12.44,12.31-6.85,0-12.44-5.58-12.44-12.31ZM904.69,462.85c0-4.32-3.07-6.98-6.86-6.98-3.75,0-6.78,2.66-6.78,6.98,0,4.15,3.03,6.98,6.78,6.98,3.79,0,6.86-2.82,6.86-6.98Z"/>
        </g>
        <g>
          <path class="n" d="M579.85,452.78h2.49v5.02c1.84-3.39,5.27-5.53,9.43-5.53,6.39,0,11.15,4.93,11.15,11.45s-4.76,11.45-11.15,11.45c-4.16,0-7.59-2.14-9.43-5.53v13.16h-2.49v-30.01ZM600.35,463.71c0-5.14-3.86-9.04-9-9.04s-9,3.9-9,9.04,3.86,9.04,9,9.04,9-3.9,9-9.04Z"/>
          <path class="n" d="M606.86,463.71c0-6.52,4.97-11.45,11.57-11.45s11.53,4.93,11.53,11.45-4.97,11.45-11.53,11.45-11.57-4.93-11.57-11.45ZM627.4,463.71c0-5.14-3.82-9.04-8.96-9.04s-9,3.9-9,9.04,3.86,9.04,9,9.04,8.96-3.9,8.96-9.04Z"/>
          <path class="n" d="M631.77,452.78h2.83l6.77,18.95,6.94-18.95h2.61l6.9,18.9,6.77-18.9h2.74l-8.19,21.86h-2.66l-6.94-18.99-6.94,18.99h-2.66l-8.19-21.86Z"/>
          <path class="n" d="M669.15,463.71c0-6.52,4.97-11.45,11.53-11.45s11.57,4.93,11.57,11.45c0,.34-.04.73-.09,1.03h-20.4c.47,4.72,4.16,8.1,9.09,8.1,3.69,0,6.86-1.89,8.23-4.72h2.79c-1.67,4.2-5.96,7.03-11.06,7.03-6.69,0-11.66-4.93-11.66-11.45ZM671.77,462.51h17.88c-.43-4.37-4.03-7.93-8.96-7.93s-8.36,3.3-8.92,7.93Z"/>
          <path class="n" d="M697.49,452.78h2.49v4.76c1.63-3.17,4.63-5.1,8.49-5.1h.56v2.57h-.56c-5.19,0-8.49,3.26-8.49,8.32v11.32h-2.49v-21.86Z"/>
          <path class="n" d="M710.48,463.71c0-6.52,4.97-11.45,11.53-11.45s11.57,4.93,11.57,11.45c0,.34-.04.73-.09,1.03h-20.4c.47,4.72,4.16,8.1,9.09,8.1,3.69,0,6.86-1.89,8.23-4.72h2.79c-1.67,4.2-5.96,7.03-11.06,7.03-6.69,0-11.66-4.93-11.66-11.45ZM713.09,462.51h17.88c-.43-4.37-4.03-7.93-8.96-7.93s-8.36,3.3-8.92,7.93Z"/>
          <path class="n" d="M737.44,463.71c0-6.52,4.76-11.45,11.1-11.45,4.2,0,7.59,2.14,9.43,5.53v-14.02h2.49v30.86h-2.49v-5.02c-1.84,3.39-5.23,5.53-9.43,5.53-6.34,0-11.1-4.93-11.1-11.45ZM757.98,463.71c0-5.14-3.86-9.04-9-9.04s-8.96,3.9-8.96,9.04,3.86,9.04,8.96,9.04,9-3.9,9-9.04Z"/>
          <path class="n" d="M778.55,443.78h2.49v14.02c1.84-3.39,5.27-5.53,9.43-5.53,6.39,0,11.15,4.93,11.15,11.45s-4.76,11.45-11.15,11.45c-4.16,0-7.59-2.14-9.43-5.53v5.02h-2.49v-30.86ZM799.05,463.71c0-5.14-3.86-9.04-9-9.04s-9,3.9-9,9.04,3.86,9.04,9,9.04,9-3.9,9-9.04Z"/>
          <path class="n" d="M813.15,474.64l-9.9-21.86h2.87l8.45,18.99,8.45-18.99h2.79l-13.63,30.01h-2.7l3.69-8.14Z"/>
        </g>
      </g>
    </g>
  </g>
</svg>