<?xml version="1.0" encoding="UTF-8"?>
<svg id="g" data-name="stacked" xmlns="http://www.w3.org/2000/svg" viewBox="0 0 1058.68 541.29">
  <defs>
    <style>
      .n {
        fill: #ee3d3a;
      }
    </style>
  </defs>
  <g id="j" data-name="stacked-v2">
    <g id="k" data-name="stacked-color-black text-w/ arlo logo">
      <g id="l" data-name="arlo dark">
        <path d="M913.37,464.91c0-2.22-1.83-4.09-4.09-4.09-2.26,0-4.13,1.88-4.13,4.09s1.88,4.13,4.13,4.13c2.26,0,4.09-1.88,4.09-4.13ZM901.16,464.91c0-4.99,3.79-8.27,8.01-8.27,1.92,0,3.79.64,4.82,1.83h.13s-1.75-4.9-1.75-4.9h-8.05s0-4.52,0-4.52h11.68s8.18,23.57,8.18,23.57h-5.5s-1.7-5.03-1.7-5.03h-.17c-.34,3.32-3.92,5.67-7.29,5.67-4.6,0-8.35-3.71-8.35-8.35Z"/>
        <rect class="n" x="975.29" y="467.34" width="5.28" height="5.28"/>
        <path d="M924.17,449.05h14.19s0,4.99,0,4.99h-8.82s0,18.58,0,18.58h-5.37s0-23.57,0-23.57Z"/>
        <path d="M941.24,442.41h5.28s0,30.21,0,30.21h-5.28s0-30.21,0-30.21Z"/>
        <path d="M949.64,461.16c0-6.78,5.49-12.1,12.23-12.1,6.74,0,12.23,5.32,12.23,12.1,0,6.61-5.49,12.1-12.23,12.1-6.74,0-12.23-5.49-12.23-12.1ZM968.61,461.16c0-4.24-3.01-6.86-6.74-6.86-3.69,0-6.66,2.62-6.66,6.86,0,4.08,2.97,6.86,6.66,6.86,3.73,0,6.74-2.78,6.74-6.86Z"/>
      </g>
      <g>
        <path d="M650.92,451.26h2.44v4.93c1.81-3.33,5.18-5.44,9.27-5.44,6.28,0,10.96,4.85,10.96,11.25s-4.68,11.25-10.96,11.25c-4.09,0-7.46-2.11-9.27-5.44v12.94h-2.44v-29.5ZM671.07,462.01c0-5.06-3.79-8.89-8.85-8.89s-8.85,3.84-8.85,8.89,3.79,8.89,8.85,8.89,8.85-3.83,8.85-8.89Z"/>
        <path d="M677.48,462.01c0-6.41,4.89-11.25,11.38-11.25s11.34,4.85,11.34,11.25-4.89,11.25-11.34,11.25-11.38-4.85-11.38-11.25ZM697.66,462.01c0-5.06-3.75-8.89-8.81-8.89s-8.85,3.84-8.85,8.89,3.79,8.89,8.85,8.89,8.81-3.83,8.81-8.89Z"/>
        <path d="M701.96,451.26h2.78l6.66,18.63,6.83-18.63h2.57l6.78,18.58,6.66-18.58h2.7l-8.05,21.49h-2.61l-6.83-18.67-6.83,18.67h-2.61l-8.05-21.49Z"/>
        <path d="M738.72,462.01c0-6.41,4.89-11.25,11.34-11.25s11.38,4.85,11.38,11.25c0,.34-.04.72-.08,1.01h-20.06c.46,4.64,4.09,7.96,8.93,7.96,3.62,0,6.74-1.85,8.09-4.64h2.74c-1.64,4.13-5.86,6.91-10.87,6.91-6.57,0-11.46-4.85-11.46-11.25ZM741.29,460.83h17.57c-.42-4.3-3.96-7.8-8.81-7.8s-8.22,3.25-8.77,7.8Z"/>
        <path d="M766.58,451.26h2.44v4.68c1.6-3.12,4.55-5.02,8.34-5.02h.55v2.53h-.55c-5.1,0-8.34,3.2-8.34,8.18v11.13h-2.44v-21.49Z"/>
        <path d="M779.35,462.01c0-6.41,4.89-11.25,11.34-11.25s11.38,4.85,11.38,11.25c0,.34-.04.72-.08,1.01h-20.06c.46,4.64,4.09,7.96,8.93,7.96,3.62,0,6.74-1.85,8.09-4.64h2.74c-1.64,4.13-5.86,6.91-10.87,6.91-6.57,0-11.46-4.85-11.46-11.25ZM781.92,460.83h17.57c-.42-4.3-3.96-7.8-8.81-7.8s-8.22,3.25-8.77,7.8Z"/>
        <path d="M805.86,462.01c0-6.41,4.68-11.25,10.92-11.25,4.13,0,7.46,2.11,9.27,5.44v-13.78h2.44v30.34h-2.44v-4.93c-1.81,3.33-5.14,5.44-9.27,5.44-6.24,0-10.92-4.85-10.92-11.25ZM826.05,462.01c0-5.06-3.79-8.89-8.85-8.89s-8.81,3.84-8.81,8.89,3.79,8.89,8.81,8.89,8.85-3.83,8.85-8.89Z"/>
        <path d="M846.28,442.41h2.44v13.78c1.81-3.33,5.18-5.44,9.27-5.44,6.28,0,10.96,4.85,10.96,11.25s-4.68,11.25-10.96,11.25c-4.09,0-7.46-2.11-9.27-5.44v4.93h-2.44v-30.34ZM866.42,462.01c0-5.06-3.79-8.89-8.85-8.89s-8.85,3.84-8.85,8.89,3.79,8.89,8.85,8.89,8.85-3.83,8.85-8.89Z"/>
        <path d="M880.29,472.75l-9.74-21.49h2.82l8.3,18.67,8.3-18.67h2.74l-13.4,29.5h-2.65l3.62-8.01Z"/>
      </g>
      <g>
        <g>
          <path d="M116.25,109.77h28.54l-28.54,125.02h-28.54l28.54-125.02Z"/>
          <path d="M157.24,109.55h27.18v21.97h1.13c6.57-14.49,19.25-25.37,38.5-25.37,31.03,0,45.3,21.52,45.3,49.6v79.27h-27.63v-72.02c0-17.21-8.15-30.8-26.27-30.8-19.93,0-30.12,16.08-30.12,33.29v69.53h-28.08v-125.47Z"/>
          <path d="M279.99,109.55h29.9l30.8,85.38,31.03-85.16h29.89l-45.75,125.24h-30.35l-45.52-125.47Z"/>
          <path d="M404.78,171.83c0-36.69,29.9-65.45,68.17-65.45s68.17,28.76,68.17,66.36c0,2.04-.23,5.66-.91,9.06h-105.09c3.17,17.21,19.25,30.12,38.27,30.12,14.95,0,27.4-7.02,33.29-19.7h31.25c-8.83,26.95-33.75,46.2-65,46.2-38.28,0-68.17-29.9-68.17-66.58ZM509.64,160.28c-2.49-14.95-17.21-27.4-37.14-27.4s-34.88,11.55-36.92,27.4h74.06Z"/>
          <path d="M552.89,198.33h28.31c.23,8.15,8.38,14.04,18.8,14.04,11.1,0,18.12-5.44,18.12-13.59,0-10.42-11.1-12.68-22.42-15.63-23.55-5.89-40.31-15.63-40.31-38.5,0-21.52,19.48-38.28,45.07-38.28s45.07,16.99,45.07,39.18l-28.31-.23c0-8.38-7.93-13.14-16.76-13.14s-16.76,4.53-16.76,12.23c0,9.29,10.87,11.55,22.2,14.49,16.76,4.3,39.86,9.97,39.86,39.41,0,22.19-20.84,40.09-46.2,40.09-26.73,0-46.66-18.12-46.66-40.09Z"/>
          <path d="M675.64,136.27h-19.25v-26.5h19.25v-35.33h28.31v35.33h19.93v26.5h-19.93v72.25h19.25v26.5h-47.56v-98.75Z"/>
          <path d="M75.45,363.92c0-36.92,29.9-65.91,66.59-65.91s66.59,28.99,66.59,65.91-29.9,65.91-66.59,65.91-66.59-29.9-66.59-65.91ZM180.54,363.92c0-24.23-17.21-39.18-38.5-39.18s-38.05,14.95-38.05,39.18,16.99,39.18,38.05,39.18,38.5-15.85,38.5-39.18Z"/>
          <path d="M263.2,292.58v28.99h29.9v26.72h-29.9v78.14h-28.31v-78.14h-18.8v-26.72h18.8v-55.71h60.7v26.73h-32.39Z"/>
          <path d="M351.3,292.58v28.99h29.89v26.72h-29.89v78.14h-28.31v-78.14h-18.8v-26.72h18.8v-55.71h60.7v26.73h-32.39Z"/>
          <path d="M395.23,352.6h74.97v25.14h-74.97v-25.14Z"/>
          <path d="M492.16,301.19h27.86v25.37h.91c7.7-17.44,27.18-28.76,48.69-28.76,33.97,0,60.24,29.44,60.24,66.13s-26.27,66.13-60.24,66.13c-20.61,0-37.14-8.83-48.01-27.63h-.91v59.79h-28.54v-161.03ZM606.65,363.92c0-24.01-17.44-39.41-38.5-39.41s-38.05,15.4-38.05,39.41,17.21,39.41,38.05,39.41,38.5-15.4,38.5-39.41Z"/>
          <path d="M650.92,265.86h28.08v160.57h-28.08v-160.57Z"/>
          <path d="M699.84,363.7c0-36.69,26.27-66.13,61.83-66.13,22.2,0,39.41,12,47.33,28.54h.91v-24.91h27.63v125.24h-27.63v-24.46h-.91c-10.87,19.7-27.18,27.86-47.33,27.86-35.56,0-61.83-29.44-61.83-66.13ZM799.83,363.7c0-22.65-15.63-39.41-38.28-39.41s-37.82,16.76-37.82,39.41,15.4,39.41,37.82,39.41,38.28-16.99,38.28-39.41Z"/>
          <path d="M868.11,300.96h27.18v21.97h1.13c6.57-14.49,19.25-25.37,38.5-25.37,31.03,0,45.3,21.52,45.3,49.6v79.27h-27.63v-72.02c0-17.21-8.15-30.8-26.27-30.8-19.93,0-30.12,16.08-30.12,33.29v69.53h-28.08v-125.47Z"/>
        </g>
        <rect class="n" x="86.41" y="60.54" width="29.67" height="29.67"/>
      </g>
    </g>
  </g>
</svg>