<?xml version="1.0" encoding="UTF-8"?>
<svg id="g" data-name="stacked" xmlns="http://www.w3.org/2000/svg" viewBox="0 0 1058.68 541.29">
  <defs>
    <style>
      .m {
        fill: #fff;
      }
    </style>
  </defs>
  <g id="i" data-name="stacked cutout">
    <g id="j" data-name="stacked-cutout-white">
      <path class="m" d="M260.64,314.77c-14.67,0-26.5,10.41-26.5,27.29s11.83,27.29,26.5,27.29,26.82-11.04,26.82-27.29-11.99-27.29-26.82-27.29Z"/>
      <path class="m" d="M557.24,314.62c-14.51,0-26.5,10.73-26.5,27.45s11.99,27.45,26.5,27.45,26.81-10.73,26.81-27.45-12.15-27.45-26.81-27.45Z"/>
      <path class="m" d="M490.8,181.15c-13.88,0-24.29,8.04-25.71,19.09h51.58c-1.74-10.41-11.99-19.09-25.87-19.09Z"/>
      <path class="m" d="M692.3,314.46c-15.62,0-26.34,11.67-26.34,27.45s10.73,27.45,26.34,27.45,26.66-11.83,26.66-27.45-10.88-27.45-26.66-27.45Z"/>
      <path class="m" d="M141.83,86.46v368.36h775.02V86.46H141.83ZM618.88,165.06h13.41v-24.61h19.72v24.61h13.88v18.46h-13.88v50.32h13.41v18.46h-33.13v-68.77h-13.41v-18.46ZM377.55,164.9l21.45,59.47,21.61-59.31h20.82l-31.86,87.23h-21.14l-31.71-87.39h20.82ZM262.56,165.06l-19.88,87.07h-19.88l19.88-87.07h19.88ZM221.91,130.77h20.66v20.66h-20.66v-20.66ZM260.64,387.96c-25.55,0-46.37-20.82-46.37-45.9s20.82-45.9,46.37-45.9,46.37,20.19,46.37,45.9-20.82,45.9-46.37,45.9ZM290.79,203.86v48.43h-19.56v-87.39h18.93v15.3h.79c4.57-10.1,13.41-17.67,26.82-17.67,21.61,0,31.55,14.99,31.55,34.54v55.21h-19.24v-50.16c0-11.99-5.68-21.45-18.3-21.45-13.88,0-20.98,11.2-20.98,23.19ZM367.59,292.38h-22.56v20.19h20.82v18.61h-20.82v54.42h-19.72v-54.42h-13.09v-18.61h13.09v-38.8h42.27v18.61ZM428.95,292.38h-22.56v20.19h20.82v18.61h-20.82v54.42h-19.72v-54.42h-13.09v-18.61h13.09v-38.8h42.27v18.61ZM489.2,351.69h-52.21v-17.51h52.21v17.51ZM443.64,208.28c0-25.55,20.82-45.59,47.48-45.59s47.48,20.03,47.48,46.22c0,1.42-.16,3.94-.63,6.31h-73.19c2.21,11.99,13.41,20.98,26.66,20.98,10.41,0,19.09-4.89,23.19-13.72h21.77c-6.15,18.77-23.5,32.18-45.27,32.18-26.66,0-47.48-20.82-47.48-46.37ZM558.44,388.12c-14.35,0-25.87-6.15-33.44-19.24h-.63v41.64h-19.87v-112.15h19.4v17.67h.63c5.36-12.15,18.93-20.03,33.91-20.03,23.66,0,41.96,20.51,41.96,46.06s-18.3,46.06-41.96,46.06ZM579.29,254.65c-18.61,0-32.49-12.62-32.49-27.92h19.72c.16,5.68,5.84,9.78,13.09,9.78,7.73,0,12.62-3.79,12.62-9.46,0-7.26-7.73-8.83-15.62-10.88-16.4-4.1-28.08-10.88-28.08-26.81,0-14.99,13.57-26.66,31.39-26.66s31.39,11.83,31.39,27.29l-19.72-.16c0-5.84-5.52-9.15-11.67-9.15s-11.67,3.16-11.67,8.52c0,6.47,7.57,8.04,15.46,10.1,11.67,3,27.76,6.94,27.76,27.45,0,15.46-14.51,27.92-32.18,27.92ZM634.63,385.6h-19.56v-111.84h19.56v111.84ZM745.04,385.6h-19.24v-17.04h-.63c-7.57,13.72-18.93,19.4-32.97,19.4-24.76,0-43.06-20.51-43.06-46.06s18.3-46.06,43.06-46.06c15.46,0,27.45,8.36,32.97,19.88h.63v-17.35h19.24v87.23ZM844.42,385.6h-19.24v-50.16c0-11.99-5.68-21.45-18.3-21.45-13.88,0-20.98,11.2-20.98,23.19v48.43h-19.56v-87.39h18.93v15.3h.79c4.57-10.1,13.41-17.67,26.81-17.67,21.61,0,31.55,14.98,31.55,34.54v55.21Z"/>
    </g>
  </g>
</svg>