<?xml version="1.0" encoding="UTF-8"?>
<svg id="a" data-name="icon" xmlns="http://www.w3.org/2000/svg" viewBox="0 0 645.75 236.95">
  <defs>
    <style>
      .l {
        fill: #fff;
      }

      .m {
        fill: #ee3d3a;
      }
    </style>
  </defs>
  <g id="b" data-name="arlo dark">
    <path class="l" d="M491.76,185.57c0-2.98-2.47-5.51-5.51-5.51-3.04,0-5.56,2.52-5.56,5.51,0,3.04,2.52,5.56,5.56,5.56,3.04,0,5.51-2.52,5.51-5.56ZM475.32,185.57c0-6.71,5.1-11.13,10.78-11.13,2.58,0,5.1.86,6.48,2.47h.17s-2.35-6.6-2.35-6.6h-10.84s0-6.08,0-6.08h15.72s11.01,31.72,11.01,31.72h-7.4s-2.29-6.77-2.29-6.77h-.23c-.46,4.47-5.28,7.63-9.81,7.63-6.2,0-11.24-4.99-11.24-11.24Z"/>
    <rect class="m" x="575.1" y="188.84" width="7.11" height="7.11"/>
    <path class="l" d="M506.29,164.23h19.1s0,6.71,0,6.71h-11.87s0,25.01,0,25.01h-7.23s0-31.72,0-31.72Z"/>
    <path class="l" d="M529.27,155.28h7.11s0,40.67,0,40.67h-7.11s0-40.67,0-40.67Z"/>
    <path class="l" d="M540.58,180.52c0-9.12,7.39-16.29,16.46-16.29,9.07,0,16.46,7.17,16.46,16.29,0,8.9-7.39,16.29-16.46,16.29-9.07,0-16.46-7.39-16.46-16.29ZM566.11,180.52c0-5.71-4.06-9.24-9.07-9.24-4.96,0-8.97,3.52-8.97,9.24,0,5.5,4,9.24,8.97,9.24,5.02,0,9.07-3.74,9.07-9.24Z"/>
  </g>
  <g>
    <path class="l" d="M137.25,167.2h3.29v6.64c2.44-4.48,6.98-7.32,12.48-7.32,8.45,0,14.75,6.52,14.75,15.15s-6.3,15.15-14.75,15.15c-5.5,0-10.04-2.84-12.48-7.32v17.42h-3.29v-39.71ZM164.37,181.67c0-6.81-5.11-11.97-11.91-11.97s-11.91,5.16-11.91,11.97,5.11,11.97,11.91,11.97,11.91-5.16,11.91-11.97Z"/>
    <path class="l" d="M172.99,181.67c0-8.62,6.58-15.15,15.32-15.15s15.26,6.52,15.26,15.15-6.58,15.15-15.26,15.15-15.32-6.52-15.32-15.15ZM200.17,181.67c0-6.81-5.05-11.97-11.86-11.97s-11.91,5.16-11.91,11.97,5.11,11.97,11.91,11.97,11.86-5.16,11.86-11.97Z"/>
    <path class="l" d="M205.95,167.2h3.74l8.96,25.08,9.19-25.08h3.46l9.13,25.02,8.96-25.02h3.63l-10.84,28.93h-3.52l-9.19-25.13-9.19,25.13h-3.52l-10.84-28.93Z"/>
    <path class="l" d="M255.43,181.67c0-8.62,6.58-15.15,15.26-15.15s15.32,6.52,15.32,15.15c0,.45-.06.96-.11,1.36h-27.01c.62,6.24,5.5,10.72,12.03,10.72,4.88,0,9.08-2.5,10.89-6.24h3.69c-2.21,5.56-7.89,9.3-14.64,9.3-8.85,0-15.43-6.52-15.43-15.15ZM258.89,180.08h23.66c-.57-5.79-5.33-10.5-11.86-10.5s-11.06,4.37-11.8,10.5Z"/>
    <path class="l" d="M292.93,167.2h3.29v6.3c2.16-4.2,6.13-6.75,11.23-6.75h.74v3.4h-.74c-6.86,0-11.23,4.31-11.23,11.01v14.98h-3.29v-28.93Z"/>
    <path class="l" d="M310.12,181.67c0-8.62,6.58-15.15,15.26-15.15s15.32,6.52,15.32,15.15c0,.45-.06.96-.11,1.36h-27.01c.62,6.24,5.5,10.72,12.03,10.72,4.88,0,9.08-2.5,10.89-6.24h3.69c-2.21,5.56-7.89,9.3-14.64,9.3-8.85,0-15.43-6.52-15.43-15.15ZM313.58,180.08h23.66c-.57-5.79-5.33-10.5-11.86-10.5s-11.06,4.37-11.8,10.5Z"/>
    <path class="l" d="M345.8,181.67c0-8.62,6.3-15.15,14.69-15.15,5.56,0,10.04,2.84,12.48,7.32v-18.55h3.29v40.85h-3.29v-6.64c-2.44,4.48-6.92,7.32-12.48,7.32-8.4,0-14.69-6.52-14.69-15.15ZM372.98,181.67c0-6.81-5.11-11.97-11.91-11.97s-11.86,5.16-11.86,11.97,5.11,11.97,11.86,11.97,11.91-5.16,11.91-11.97Z"/>
    <path class="l" d="M400.21,155.28h3.29v18.55c2.44-4.48,6.98-7.32,12.48-7.32,8.45,0,14.75,6.52,14.75,15.15s-6.3,15.15-14.75,15.15c-5.5,0-10.04-2.84-12.48-7.32v6.64h-3.29v-40.85ZM427.33,181.67c0-6.81-5.11-11.97-11.91-11.97s-11.91,5.16-11.91,11.97,5.11,11.97,11.91,11.97,11.91-5.16,11.91-11.97Z"/>
    <path class="l" d="M445.99,196.13l-13.11-28.93h3.8l11.18,25.13,11.18-25.13h3.69l-18.04,39.71h-3.57l4.88-10.78Z"/>
  </g>
  <g>
    <path class="l" d="M92.09,77.16h27.31l-27.31,119.65h-27.31l27.31-119.65Z"/>
    <rect class="m" x="63.53" y="30.04" width="28.39" height="28.39"/>
  </g>
</svg>