<?xml version="1.0" encoding="UTF-8"?>
<svg id="d" data-name="horizontal" xmlns="http://www.w3.org/2000/svg" viewBox="0 0 1058.68 238.41">
  <path d="M738.46,101.84c-11.16,0-20.37,8.25-20.37,21.1s9.22,21.1,20.37,21.1,20.61-8.25,20.61-21.1-9.34-21.1-20.61-21.1Z"/>
  <path d="M842.44,101.72c-12,0-20.25,8.97-20.25,21.1s8.25,21.1,20.25,21.1,20.49-9.09,20.49-21.1-8.37-21.1-20.49-21.1Z"/>
  <path d="M510.52,101.96c-11.28,0-20.37,8-20.37,20.98s9.09,20.98,20.37,20.98,20.61-8.49,20.61-20.98-9.22-20.98-20.61-20.98Z"/>
  <path d="M306.41,101.64c-10.69,0-18.7,6.19-19.8,14.69h39.71c-1.34-8.02-9.23-14.69-19.92-14.69Z"/>
  <path d="M46.5,34.43v169.55h965.69V34.43H46.5ZM99.38,62.85h15.91v15.91h-15.91v-15.91ZM115.38,156.28h-15.3l15.3-67.04h15.3l-15.3,67.04ZM197.48,156.41h-14.82v-38.62c0-9.23-4.37-16.52-14.09-16.52-10.69,0-16.15,8.62-16.15,17.85v37.28h-15.06v-67.28h14.57v11.78h.61c3.52-7.77,10.32-13.6,20.65-13.6,16.64,0,24.29,11.54,24.29,26.6v42.51ZM243.87,156.41h-16.27l-24.41-67.28h16.03l16.52,45.78,16.64-45.66h16.03l-24.53,67.16ZM342.72,127.87h-56.35c1.7,9.23,10.32,16.15,20.52,16.15,8.02,0,14.7-3.76,17.85-10.57h16.76c-4.74,14.45-18.1,24.77-34.85,24.77-20.52,0-36.55-16.03-36.55-35.7s16.03-35.1,36.55-35.1,36.55,15.42,36.55,35.58c0,1.09-.12,3.04-.49,4.86ZM374.54,158.23c-14.33,0-25.02-9.72-25.02-21.5h15.18c.12,4.37,4.49,7.53,10.08,7.53,5.95,0,9.72-2.91,9.72-7.29,0-5.59-5.95-6.8-12.02-8.38-12.63-3.16-21.62-8.38-21.62-20.65,0-11.54,10.44-20.52,24.17-20.52s24.17,9.11,24.17,21.01l-15.18-.12c0-4.49-4.25-7.04-8.99-7.04s-8.99,2.43-8.99,6.56c0,4.98,5.83,6.19,11.9,7.77,8.99,2.31,21.37,5.34,21.37,21.13,0,11.9-11.17,21.5-24.77,21.5ZM441.21,103.46h-10.69v38.74h10.32v14.21h-25.5v-52.95h-10.32v-14.21h10.32v-18.95h15.18v18.95h10.69v14.21ZM510.52,158.23c-19.64,0-35.65-16.01-35.65-35.29s16.01-35.29,35.65-35.29,35.65,15.52,35.65,35.29-16.01,35.29-35.65,35.29ZM592.74,84.74h-17.34v15.52h16.01v14.31h-16.01v41.84h-15.16v-41.84h-10.06v-14.31h10.06v-29.83h32.5v14.31ZM639.91,84.74h-17.34v15.52h16.01v14.31h-16.01v41.84h-15.16v-41.84h-10.06v-14.31h10.06v-29.83h32.5v14.31ZM686.23,130.34h-40.14v-13.46h40.14v13.46ZM739.46,158.35c-11.03,0-19.89-4.73-25.71-14.79h-.49v32.01h-15.28v-86.22h14.92v13.58h.49c4.12-9.34,14.55-15.4,26.07-15.4,18.19,0,32.26,15.76,32.26,35.41s-14.07,35.41-32.26,35.41ZM798.02,156.41h-15.04v-85.97h15.04v85.97ZM882.91,156.41h-14.79v-13.1h-.49c-5.82,10.55-14.55,14.91-25.34,14.91-19.04,0-33.1-15.76-33.1-35.41s14.07-35.41,33.1-35.41c11.88,0,21.1,6.43,25.34,15.28h.49v-13.34h14.79v67.06ZM959.3,156.41h-14.79v-38.56c0-9.22-4.37-16.49-14.07-16.49-10.67,0-16.13,8.61-16.13,17.83v37.23h-15.04v-67.18h14.55v11.76h.61c3.52-7.76,10.31-13.58,20.61-13.58,16.61,0,24.25,11.52,24.25,26.56v42.44Z"/>
</svg>