<?xml version="1.0" encoding="UTF-8"?>
<svg id="d" xmlns="http://www.w3.org/2000/svg" version="1.1" viewBox="0 0 1058.7 238.4">
  <!-- Generator: Adobe Illustrator 29.6.1, SVG Export Plug-In . SVG Version: 2.1.1 Build 9)  -->
  <defs>
    <style>
      .st0 {
        fill: #ee3d3a;
      }
    </style>
  </defs>
  <g id="e">
    <path d="M738.5,101.8c-11.2,0-20.4,8.2-20.4,21.1s9.2,21.1,20.4,21.1,20.6-8.2,20.6-21.1-9.3-21.1-20.6-21.1Z"/>
    <path d="M842.4,101.7c-12,0-20.2,9-20.2,21.1s8.2,21.1,20.2,21.1,20.5-9.1,20.5-21.1-8.4-21.1-20.5-21.1Z"/>
    <path d="M510.5,102c-11.3,0-20.4,8-20.4,21s9.1,21,20.4,21,20.6-8.5,20.6-21-9.2-21-20.6-21h0Z"/>
    <g>
      <path d="M306.4,101.6c-10.7,0-18.7,6.2-19.8,14.7h39.7c-1.3-8-9.2-14.7-19.9-14.7h0Z"/>
      <path d="M46.5,34.4v169.6h965.7V34.4H46.5ZM115.4,156.3h-15.3l15.3-67h15.3s-15.3,67-15.3,67ZM197.5,156.4h-14.8v-38.6c0-9.2-4.4-16.5-14.1-16.5s-16.1,8.6-16.1,17.8v37.3h-15.1v-67.3h14.6v11.8h.6c3.5-7.8,10.3-13.6,20.6-13.6,16.6,0,24.3,11.5,24.3,26.6v42.5h0ZM243.9,156.4h-16.3l-24.4-67.3h16l16.5,45.8,16.6-45.7h16l-24.5,67.2h0ZM342.7,127.9h-56.4c1.7,9.2,10.3,16.2,20.5,16.2s14.7-3.8,17.9-10.6h16.8c-4.7,14.4-18.1,24.8-34.9,24.8s-36.5-16-36.5-35.7,16-35.1,36.5-35.1,36.5,15.4,36.5,35.6-.1,3-.5,4.9h0ZM374.5,158.2c-14.3,0-25-9.7-25-21.5h15.2c.1,4.4,4.5,7.5,10.1,7.5s9.7-2.9,9.7-7.3-6-6.8-12-8.4c-12.6-3.2-21.6-8.4-21.6-20.7s10.4-20.5,24.2-20.5,24.2,9.1,24.2,21h-15.2c0-4.6-4.2-7.2-9-7.2s-9,2.4-9,6.6,5.8,6.2,11.9,7.8c9,2.3,21.4,5.3,21.4,21.1s-11.2,21.5-24.8,21.5h0ZM441.2,103.5h-10.7v38.7h10.3v14.2h-25.5v-52.9h-10.3v-14.2h10.3v-19h15.2v18.9h10.7v14.2ZM510.5,158.2c-19.6,0-35.6-16-35.6-35.3s16-35.3,35.6-35.3,35.6,15.5,35.6,35.3-16,35.3-35.6,35.3ZM592.7,84.7h-17.3v15.5h16v14.3h-16v41.8h-15.2v-41.8h-10.1v-14.3h10.1v-29.8h32.5v14.3ZM639.9,84.7h-17.3v15.5h16v14.3h-16v41.8h-15.2v-41.8h-10.1v-14.3h10.1v-29.8h32.5v14.3ZM686.2,130.3h-40.1v-13.5h40.1v13.5ZM739.5,158.4c-11,0-19.9-4.7-25.7-14.8h-.5v32h-15.3v-86.2h14.9v13.6h.5c4.1-9.3,14.5-15.4,26.1-15.4,18.2,0,32.3,15.8,32.3,35.4s-14.1,35.4-32.3,35.4h0ZM798,156.4h-15v-86h15v86ZM882.9,156.4h-14.8v-13.1h-.5c-5.8,10.6-14.5,14.9-25.3,14.9-19,0-33.1-15.8-33.1-35.4s14.1-35.4,33.1-35.4,21.1,6.4,25.3,15.3h.5v-13.3h14.8v67.1h0ZM959.3,156.4h-14.8v-38.6c0-9.2-4.4-16.5-14.1-16.5s-16.1,8.6-16.1,17.8v37.2h-15v-67.2h14.5v11.8h.6c3.5-7.8,10.3-13.6,20.6-13.6,16.6,0,24.2,11.5,24.2,26.6v42.4h0Z"/>
    </g>
    <rect class="st0" x="99.4" y="62.8" width="15.9" height="15.9"/>
  </g>
</svg>