<?xml version="1.0" encoding="UTF-8"?>
<svg id="a" xmlns="http://www.w3.org/2000/svg" version="1.1" viewBox="0 0 309.4 295.6">
  <!-- Generator: Adobe Illustrator 29.6.1, SVG Export Plug-In . SVG Version: 2.1.1 Build 9)  -->
  <defs>
    <style>
      .st0 {
        fill: #fff;
      }
    </style>
  </defs>
  <path class="st0" d="M55.3,30.8v198.8h198.8V30.8H55.3ZM135.7,73.9h19.4v19.4h-19.4v-19.4ZM155.1,187.7h-18.6l18.6-81.6h18.6l-18.6,81.6Z"/>
  <g>
    <g id="b">
      <path class="st0" d="M213.9,255.3c0-1.3-1.1-2.4-2.4-2.4s-2.5,1.1-2.5,2.4,1.1,2.5,2.5,2.5,2.4-1.1,2.4-2.5h0ZM206.6,255.3c0-3,2.3-4.9,4.8-4.9s2.3.4,2.9,1.1h0l-1-2.9h-4.8v-2.7h7l4.9,14.1h-3.3l-1-3h-.1c-.2,2-2.4,3.4-4.4,3.4s-5-2.2-5-5h0Z"/>
      <rect class="st0" x="251" y="256.8" width="3.2" height="3.2"/>
      <path class="st0" d="M220.4,245.8h8.5v3h-5.3v11.1h-3.2v-14.1h0Z"/>
      <path class="st0" d="M230.6,241.9h3.2v18.1h-3.2v-18.1Z"/>
      <path class="st0" d="M235.6,253.1c0-4.1,3.3-7.2,7.3-7.2s7.3,3.2,7.3,7.2-3.3,7.2-7.3,7.2-7.3-3.3-7.3-7.2h0ZM247,253.1c0-2.5-1.8-4.1-4-4.1s-4,1.6-4,4.1,1.8,4.1,4,4.1,4-1.7,4-4.1Z"/>
    </g>
    <g>
      <path class="st0" d="M55.3,247.1h1.5v2.9c1.1-2,3.1-3.2,5.5-3.2,3.8,0,6.5,2.9,6.5,6.7s-2.8,6.7-6.5,6.7-4.5-1.3-5.5-3.2v7.7h-1.5v-17.6h0ZM67.4,253.6c0-3-2.3-5.3-5.3-5.3s-5.3,2.3-5.3,5.3,2.3,5.3,5.3,5.3,5.3-2.3,5.3-5.3Z"/>
      <path class="st0" d="M71.2,253.6c0-3.8,2.9-6.7,6.8-6.7s6.8,2.9,6.8,6.7-2.9,6.7-6.8,6.7-6.8-2.9-6.8-6.7h0ZM83.3,253.6c0-3-2.2-5.3-5.3-5.3s-5.3,2.3-5.3,5.3,2.3,5.3,5.3,5.3,5.3-2.3,5.3-5.3Z"/>
      <path class="st0" d="M85.8,247.1h1.7l4,11.1,4.1-11.1h1.5l4.1,11.1,4-11.1h1.6l-4.8,12.9h-1.6l-4.1-11.2-4.1,11.2h-1.6l-4.8-12.9h0Z"/>
      <path class="st0" d="M107.8,253.6c0-3.8,2.9-6.7,6.8-6.7s6.8,2.9,6.8,6.7,0,.4,0,.6h-12c.3,2.8,2.4,4.8,5.3,4.8s4-1.1,4.8-2.8h1.6c-1,2.5-3.5,4.1-6.5,4.1s-6.9-2.9-6.9-6.7h0ZM109.4,252.9h10.5c-.2-2.6-2.4-4.7-5.3-4.7s-4.9,1.9-5.2,4.7Z"/>
      <path class="st0" d="M124.5,247.1h1.5v2.8c1-1.9,2.7-3,5-3h.3v1.5h-.3c-3.1,0-5,1.9-5,4.9v6.6h-1.5v-12.9h0Z"/>
      <path class="st0" d="M132.1,253.6c0-3.8,2.9-6.7,6.8-6.7s6.8,2.9,6.8,6.7,0,.4,0,.6h-12c.3,2.8,2.4,4.8,5.3,4.8s4-1.1,4.8-2.8h1.6c-1,2.5-3.5,4.1-6.5,4.1s-6.9-2.9-6.9-6.7h0ZM133.7,252.9h10.5c-.2-2.6-2.4-4.7-5.3-4.7s-4.9,1.9-5.2,4.7h0Z"/>
      <path class="st0" d="M148,253.6c0-3.8,2.8-6.7,6.5-6.7s4.5,1.3,5.6,3.2v-8.2h1.5v18.1h-1.5v-3c-1.1,2-3.1,3.2-5.6,3.2-3.7,0-6.5-2.9-6.5-6.7h0ZM160.1,253.6c0-3-2.3-5.3-5.3-5.3s-5.3,2.3-5.3,5.3,2.3,5.3,5.3,5.3,5.3-2.3,5.3-5.3Z"/>
      <path class="st0" d="M172.2,241.9h1.5v8.2c1.1-2,3.1-3.2,5.6-3.2,3.8,0,6.6,2.9,6.6,6.7s-2.8,6.7-6.6,6.7-4.5-1.3-5.6-3.2v3h-1.5v-18.1h0ZM184.2,253.6c0-3-2.3-5.3-5.3-5.3s-5.3,2.3-5.3,5.3,2.3,5.3,5.3,5.3,5.3-2.3,5.3-5.3Z"/>
      <path class="st0" d="M192.5,260l-5.8-12.9h1.7l5,11.2,5-11.2h1.6l-8,17.7h-1.6l2.2-4.8h0Z"/>
    </g>
  </g>
</svg>