<?xml version="1.0" encoding="UTF-8"?>
<svg id="a" data-name="icon" xmlns="http://www.w3.org/2000/svg" viewBox="0 0 309.44 295.64">
  <defs>
    <style>
      .l {
        fill: #ee3d3a;
      }
    </style>
  </defs>
  <path d="M55.32,30.85v198.79h198.79V30.85H55.32ZM155.14,187.69h-18.64l18.64-81.64h18.64l-18.64,81.64Z"/>
  <rect class="l" x="135.66" y="73.89" width="19.37" height="19.37"/>
  <g>
    <g id="b" data-name="arlo dark">
      <path d="M213.92,255.3c0-1.33-1.1-2.45-2.45-2.45s-2.47,1.12-2.47,2.45c0,1.35,1.12,2.47,2.47,2.47s2.45-1.12,2.45-2.47ZM206.62,255.3c0-2.98,2.27-4.94,4.79-4.94,1.15,0,2.27.38,2.88,1.1h.08s-1.04-2.93-1.04-2.93h-4.82s0-2.7,0-2.7h6.98s4.89,14.1,4.89,14.1h-3.29s-1.02-3.01-1.02-3.01h-.1c-.2,1.99-2.35,3.39-4.36,3.39-2.75,0-5-2.22-5-5Z"/>
      <rect class="l" x="250.96" y="256.76" width="3.16" height="3.16"/>
      <path d="M220.38,245.82h8.49s0,2.98,0,2.98h-5.28v11.11s-3.21,0-3.21,0v-14.1Z"/>
      <path d="M230.59,241.85h3.16s0,18.07,0,18.07h-3.16s0-18.07,0-18.07Z"/>
      <path d="M235.62,253.06c0-4.05,3.28-7.24,7.31-7.24,4.03,0,7.31,3.18,7.31,7.24,0,3.96-3.28,7.24-7.31,7.24-4.03,0-7.31-3.28-7.31-7.24ZM246.96,253.06c0-2.54-1.8-4.1-4.03-4.1-2.21,0-3.99,1.57-3.99,4.1,0,2.44,1.78,4.1,3.99,4.1s4.03-1.66,4.03-4.1Z"/>
    </g>
    <g>
      <path d="M55.32,247.14h1.46v2.95c1.08-1.99,3.1-3.25,5.55-3.25,3.76,0,6.55,2.9,6.55,6.73s-2.8,6.73-6.55,6.73c-2.45,0-4.46-1.26-5.55-3.25v7.74h-1.46v-17.65ZM67.37,253.57c0-3.03-2.27-5.32-5.29-5.32s-5.29,2.29-5.29,5.32,2.27,5.32,5.29,5.32,5.29-2.29,5.29-5.32Z"/>
      <path d="M71.21,253.57c0-3.83,2.92-6.73,6.81-6.73s6.78,2.9,6.78,6.73-2.92,6.73-6.78,6.73-6.81-2.9-6.81-6.73ZM83.28,253.57c0-3.03-2.24-5.32-5.27-5.32s-5.29,2.29-5.29,5.32,2.27,5.32,5.29,5.32,5.27-2.29,5.27-5.32Z"/>
      <path d="M85.85,247.14h1.66l3.98,11.14,4.08-11.14h1.54l4.06,11.12,3.98-11.12h1.61l-4.81,12.86h-1.56l-4.08-11.17-4.08,11.17h-1.56l-4.81-12.86Z"/>
      <path d="M107.84,253.57c0-3.83,2.92-6.73,6.78-6.73s6.81,2.9,6.81,6.73c0,.2-.03.43-.05.6h-12c.28,2.77,2.45,4.76,5.34,4.76,2.17,0,4.03-1.11,4.84-2.77h1.64c-.98,2.47-3.5,4.13-6.5,4.13-3.93,0-6.86-2.9-6.86-6.73ZM109.37,252.87h10.51c-.25-2.57-2.37-4.66-5.27-4.66s-4.92,1.94-5.24,4.66Z"/>
      <path d="M124.5,247.14h1.46v2.8c.96-1.87,2.72-3,4.99-3h.33v1.51h-.33c-3.05,0-4.99,1.92-4.99,4.89v6.65h-1.46v-12.86Z"/>
      <path d="M132.14,253.57c0-3.83,2.92-6.73,6.78-6.73s6.81,2.9,6.81,6.73c0,.2-.03.43-.05.6h-12c.28,2.77,2.45,4.76,5.34,4.76,2.17,0,4.03-1.11,4.84-2.77h1.64c-.98,2.47-3.5,4.13-6.5,4.13-3.93,0-6.86-2.9-6.86-6.73ZM133.68,252.87h10.51c-.25-2.57-2.37-4.66-5.27-4.66s-4.92,1.94-5.24,4.66Z"/>
      <path d="M148,253.57c0-3.83,2.8-6.73,6.53-6.73,2.47,0,4.46,1.26,5.55,3.25v-8.24h1.46v18.15h-1.46v-2.95c-1.08,1.99-3.08,3.25-5.55,3.25-3.73,0-6.53-2.9-6.53-6.73ZM160.07,253.57c0-3.03-2.27-5.32-5.29-5.32s-5.27,2.29-5.27,5.32,2.27,5.32,5.27,5.32,5.29-2.29,5.29-5.32Z"/>
      <path d="M172.17,241.85h1.46v8.24c1.08-1.99,3.1-3.25,5.55-3.25,3.76,0,6.55,2.9,6.55,6.73s-2.8,6.73-6.55,6.73c-2.45,0-4.46-1.26-5.55-3.25v2.95h-1.46v-18.15ZM184.22,253.57c0-3.03-2.27-5.32-5.29-5.32s-5.29,2.29-5.29,5.32,2.27,5.32,5.29,5.32,5.29-2.29,5.29-5.32Z"/>
      <path d="M192.52,260l-5.82-12.86h1.69l4.97,11.17,4.97-11.17h1.64l-8.02,17.65h-1.59l2.17-4.79Z"/>
    </g>
  </g>
</svg>