<?xml version="1.0" encoding="UTF-8"?>
<svg id="c" data-name="iop" xmlns="http://www.w3.org/2000/svg" viewBox="0 0 403.63 247.08">
  <path d="M127.71,127.87c0-24.97,20.22-44.57,45.03-44.57s45.03,19.61,45.03,44.57-20.22,44.57-45.03,44.57-45.03-20.22-45.03-44.57ZM198.78,127.87c0-16.39-11.64-26.5-26.04-26.5s-25.73,10.11-25.73,26.5,11.49,26.5,25.73,26.5,26.04-10.72,26.04-26.5Z"/>
  <path d="M230.33,85.6h18.84v17.15h.61c5.21-11.79,18.38-19.45,32.93-19.45,22.98,0,40.74,19.91,40.74,44.72s-17.77,44.72-40.74,44.72c-13.94,0-25.12-5.97-32.47-18.69h-.61v40.44h-19.3v-108.9ZM306.7,128.02c0-16.24-11.79-26.65-26.04-26.65s-25.73,10.42-25.73,26.65,11.64,26.65,25.73,26.65,26.04-10.42,26.04-26.65Z"/>
  <g>
    <path d="M100.36,85.89h19.31l-19.31,84.6h-19.31l19.31-84.6Z"/>
    <rect x="80.17" y="52.58" width="20.08" height="20.08"/>
  </g>
</svg>