<?xml version="1.0" encoding="UTF-8"?>
<svg id="c" data-name="iop" xmlns="http://www.w3.org/2000/svg" viewBox="0 0 681.2 247.08">
  <defs>
    <style>
      .m {
        fill: #fff;
      }
    </style>
  </defs>
  <g id="d" data-name="arlo dark">
    <path class="m" d="M562.34,162.71c0-2.13-1.76-3.94-3.94-3.94-2.17,0-3.98,1.81-3.98,3.94,0,2.17,1.81,3.98,3.98,3.98,2.18,0,3.94-1.81,3.94-3.98ZM550.58,162.71c0-4.8,3.65-7.96,7.71-7.96,1.85,0,3.65.62,4.64,1.76h.12s-1.68-4.72-1.68-4.72h-7.76s0-4.35,0-4.35h11.24s7.88,22.69,7.88,22.69h-5.29s-1.64-4.84-1.64-4.84h-.16c-.33,3.2-3.78,5.46-7.02,5.46-4.43,0-8.04-3.57-8.04-8.04Z"/>
    <rect class="m" x="621.96" y="165.05" width="5.09" height="5.09"/>
    <path class="m" d="M572.74,147.45h13.67s0,4.8,0,4.8h-8.49s0,17.89,0,17.89h-5.17s0-22.69,0-22.69Z"/>
    <path class="m" d="M589.17,141.05h5.09s0,29.09,0,29.09h-5.09s0-29.09,0-29.09Z"/>
    <path class="m" d="M597.27,159.1c0-6.53,5.29-11.65,11.77-11.65,6.49,0,11.77,5.13,11.77,11.65,0,6.37-5.29,11.65-11.77,11.65-6.49,0-11.77-5.29-11.77-11.65ZM615.53,159.1c0-4.09-2.9-6.61-6.49-6.61-3.55,0-6.42,2.52-6.42,6.61,0,3.93,2.86,6.61,6.42,6.61,3.59,0,6.49-2.67,6.49-6.61Z"/>
  </g>
  <g>
    <path class="m" d="M310.16,149.57h2.35v4.75c1.75-3.21,4.99-5.24,8.93-5.24,6.05,0,10.55,4.67,10.55,10.84s-4.51,10.84-10.55,10.84c-3.94,0-7.18-2.03-8.93-5.24v12.46h-2.35v-28.41ZM329.56,159.92c0-4.87-3.65-8.56-8.52-8.56s-8.52,3.69-8.52,8.56,3.65,8.56,8.52,8.56,8.52-3.69,8.52-8.56Z"/>
    <path class="m" d="M335.72,159.92c0-6.17,4.71-10.84,10.96-10.84s10.92,4.67,10.92,10.84-4.71,10.84-10.92,10.84-10.96-4.67-10.96-10.84ZM355.17,159.92c0-4.87-3.61-8.56-8.48-8.56s-8.52,3.69-8.52,8.56,3.65,8.56,8.52,8.56,8.48-3.69,8.48-8.56Z"/>
    <path class="m" d="M359.31,149.57h2.68l6.41,17.94,6.57-17.94h2.48l6.53,17.9,6.41-17.9h2.6l-7.75,20.7h-2.52l-6.57-17.98-6.58,17.98h-2.52l-7.75-20.7Z"/>
    <path class="m" d="M394.7,159.92c0-6.17,4.71-10.84,10.92-10.84s10.96,4.67,10.96,10.84c0,.32-.04.69-.08.97h-19.32c.45,4.46,3.94,7.67,8.6,7.67,3.49,0,6.49-1.79,7.79-4.46h2.64c-1.58,3.98-5.64,6.66-10.47,6.66-6.33,0-11.04-4.67-11.04-10.84ZM397.17,158.78h16.92c-.41-4.14-3.82-7.51-8.48-7.51s-7.91,3.13-8.44,7.51Z"/>
    <path class="m" d="M421.53,149.57h2.35v4.5c1.54-3,4.38-4.83,8.04-4.83h.53v2.44h-.53c-4.91,0-8.04,3.08-8.04,7.87v10.71h-2.35v-20.7Z"/>
    <path class="m" d="M433.82,159.92c0-6.17,4.71-10.84,10.92-10.84s10.96,4.67,10.96,10.84c0,.32-.04.69-.08.97h-19.32c.45,4.46,3.94,7.67,8.6,7.67,3.49,0,6.49-1.79,7.79-4.46h2.64c-1.58,3.98-5.64,6.66-10.47,6.66-6.33,0-11.04-4.67-11.04-10.84ZM436.3,158.78h16.92c-.41-4.14-3.82-7.51-8.48-7.51s-7.91,3.13-8.44,7.51Z"/>
    <path class="m" d="M459.35,159.92c0-6.17,4.51-10.84,10.51-10.84,3.98,0,7.18,2.03,8.93,5.24v-13.27h2.35v29.22h-2.35v-4.75c-1.75,3.21-4.95,5.24-8.93,5.24-6.01,0-10.51-4.67-10.51-10.84ZM478.79,159.92c0-4.87-3.65-8.56-8.52-8.56s-8.48,3.69-8.48,8.56,3.65,8.56,8.48,8.56,8.52-3.69,8.52-8.56Z"/>
    <path class="m" d="M498.28,141.05h2.35v13.27c1.75-3.21,4.99-5.24,8.93-5.24,6.05,0,10.55,4.67,10.55,10.84s-4.51,10.84-10.55,10.84c-3.94,0-7.18-2.03-8.93-5.24v4.75h-2.35v-29.22ZM517.68,159.92c0-4.87-3.65-8.56-8.52-8.56s-8.52,3.69-8.52,8.56,3.65,8.56,8.52,8.56,8.52-3.69,8.52-8.56Z"/>
    <path class="m" d="M531.03,170.27l-9.38-20.7h2.72l8,17.98,8-17.98h2.64l-12.91,28.41h-2.56l3.49-7.71Z"/>
  </g>
  <path class="m" d="M101.87,127.89c0-25.06,20.29-44.74,45.2-44.74s45.2,19.68,45.2,44.74-20.29,44.74-45.2,44.74-45.2-20.29-45.2-44.74ZM173.2,127.89c0-16.45-11.68-26.6-26.13-26.6s-25.83,10.15-25.83,26.6,11.53,26.6,25.83,26.6,26.13-10.76,26.13-26.6Z"/>
  <path class="m" d="M204.87,85.46h18.91v17.22h.61c5.23-11.84,18.45-19.52,33.05-19.52,23.06,0,40.89,19.99,40.89,44.89s-17.83,44.89-40.89,44.89c-13.99,0-25.21-6-32.59-18.76h-.61v40.59h-19.37v-109.3ZM281.5,128.04c0-16.3-11.84-26.75-26.13-26.75s-25.83,10.45-25.83,26.75,11.68,26.75,25.83,26.75,26.13-10.45,26.13-26.75Z"/>
  <g>
    <path class="m" d="M74.41,85.75h19.38l-19.38,84.91h-19.38l19.38-84.91Z"/>
    <rect class="m" x="54.15" y="52.32" width="20.15" height="20.15"/>
  </g>
</svg>