<?xml version="1.0" encoding="UTF-8"?>
<svg id="d" data-name="horizontal" xmlns="http://www.w3.org/2000/svg" viewBox="0 0 1058.68 298.78">
  <defs>
    <style>
      .m {
        fill: #ee3d3a;
      }
    </style>
  </defs>
  <g>
    <path d="M510.65,112.18c-11.31,0-20.43,8.02-20.43,21.03s9.12,21.03,20.43,21.03,20.67-8.51,20.67-21.03-9.24-21.03-20.67-21.03Z"/>
    <path d="M844.45,111.94c-12.04,0-20.3,9-20.3,21.16s8.27,21.16,20.3,21.16,20.55-9.12,20.55-21.16-8.39-21.16-20.55-21.16Z"/>
    <path d="M45.21,44.25v168h968.26V44.25H45.21ZM114.46,166.65h-15.34l15.34-67.22h15.34l-15.34,67.22ZM196.77,166.77h-14.86v-38.72c0-9.25-4.38-16.56-14.12-16.56-10.72,0-16.2,8.65-16.2,17.9v37.38h-15.1v-67.46h14.61v11.81h.61c3.53-7.79,10.35-13.64,20.7-13.64,16.68,0,24.35,11.57,24.35,26.67v42.62ZM243.28,166.77h-16.32l-24.48-67.46h16.07l16.56,45.91,16.68-45.78h16.07l-24.6,67.34ZM342.4,138.16h-56.5c1.7,9.25,10.35,16.19,20.58,16.19,8.04,0,14.73-3.77,17.9-10.59h16.8c-4.75,14.49-18.14,24.84-34.95,24.84-20.58,0-36.65-16.07-36.65-35.8s16.07-35.19,36.65-35.19,36.65,15.46,36.65,35.68c0,1.1-.12,3.04-.49,4.87ZM374.3,168.6c-14.37,0-25.08-9.74-25.08-21.55h15.22c.12,4.38,4.51,7.55,10.11,7.55,5.97,0,9.74-2.92,9.74-7.31,0-5.6-5.97-6.82-12.05-8.4-12.66-3.17-21.67-8.4-21.67-20.7,0-11.57,10.47-20.58,24.23-20.58s24.23,9.13,24.23,21.07l-15.22-.12c0-4.51-4.26-7.06-9.01-7.06s-9.01,2.44-9.01,6.58c0,4.99,5.84,6.21,11.93,7.79,9.01,2.31,21.43,5.36,21.43,21.19,0,11.93-11.2,21.55-24.84,21.55ZM441.15,113.68h-10.72v38.84h10.35v14.25h-25.57v-53.09h-10.35v-14.25h10.35v-19h15.22v19h10.72v14.25ZM510.65,168.6c-19.7,0-35.75-16.05-35.75-35.38s16.05-35.38,35.75-35.38,35.75,15.56,35.75,35.38-16.05,35.38-35.75,35.38ZM593.08,94.92h-17.39v15.56h16.05v14.35h-16.05v41.95h-15.2v-41.95h-10.09v-14.35h10.09v-29.91h32.58v14.35ZM640.38,94.92h-17.39v15.56h16.05v14.35h-16.05v41.95h-15.2v-41.95h-10.09v-14.35h10.09v-29.91h32.58v14.35ZM686.82,140.63h-40.24v-13.5h40.24v13.5ZM740.19,168.72c-11.06,0-19.94-4.74-25.78-14.83h-.49v32.1h-15.32v-86.45h14.95v13.62h.49c4.13-9.36,14.59-15.44,26.14-15.44,18.24,0,32.34,15.81,32.34,35.5s-14.1,35.5-32.34,35.5ZM798.92,166.77h-15.08v-86.2h15.08v86.2ZM884.02,166.77h-14.83v-13.13h-.49c-5.84,10.58-14.59,14.95-25.41,14.95-19.09,0-33.19-15.81-33.19-35.5s14.1-35.5,33.19-35.5c11.92,0,21.16,6.44,25.41,15.32h.49v-13.37h14.83v67.24ZM960.62,166.77h-14.83v-38.66c0-9.24-4.38-16.54-14.1-16.54-10.7,0-16.17,8.63-16.17,17.87v37.33h-15.08v-67.36h14.59v11.79h.61c3.53-7.78,10.33-13.62,20.67-13.62,16.66,0,24.32,11.55,24.32,26.63v42.55Z"/>
    <path d="M305.99,111.85c-10.72,0-18.75,6.21-19.85,14.73h39.82c-1.34-8.04-9.25-14.73-19.97-14.73Z"/>
    <path d="M739.18,112.06c-11.19,0-20.43,8.27-20.43,21.16s9.24,21.16,20.43,21.16,20.67-8.27,20.67-21.16-9.36-21.16-20.67-21.16Z"/>
  </g>
  <g>
    <g id="e" data-name="arlo dark">
      <path d="M961.3,242.39c0-1.72-1.42-3.18-3.18-3.18-1.75,0-3.21,1.46-3.21,3.18,0,1.75,1.46,3.21,3.21,3.21s3.18-1.46,3.18-3.21ZM951.82,242.39c0-3.87,2.94-6.42,6.22-6.42,1.49,0,2.94.5,3.74,1.42h.1s-1.36-3.8-1.36-3.8h-6.25s0-3.51,0-3.51h9.07s6.35,18.3,6.35,18.3h-4.27s-1.32-3.9-1.32-3.9h-.13c-.26,2.58-3.04,4.4-5.66,4.4-3.57,0-6.48-2.88-6.48-6.48Z"/>
      <rect class="m" x="1009.37" y="244.28" width="4.1" height="4.1"/>
      <path d="M969.69,230.09h11.02s0,3.87,0,3.87h-6.85s0,14.42,0,14.42h-4.17s0-18.3,0-18.3Z"/>
      <path d="M982.94,224.93h4.1s0,23.46,0,23.46h-4.1s0-23.46,0-23.46Z"/>
      <path d="M989.46,239.48c0-5.26,4.26-9.4,9.49-9.4,5.23,0,9.49,4.13,9.49,9.4,0,5.13-4.26,9.4-9.49,9.4-5.23,0-9.49-4.26-9.49-9.4ZM1004.19,239.48c0-3.29-2.34-5.33-5.23-5.33s-5.17,2.03-5.17,5.33c0,3.17,2.31,5.33,5.17,5.33s5.23-2.16,5.23-5.33Z"/>
    </g>
    <g>
      <path d="M759.26,231.8h1.9v3.83c1.41-2.58,4.02-4.22,7.2-4.22,4.88,0,8.51,3.76,8.51,8.74s-3.63,8.74-8.51,8.74c-3.17,0-5.79-1.64-7.2-4.22v10.04h-1.9v-22.9ZM774.91,240.14c0-3.93-2.95-6.9-6.87-6.9s-6.87,2.98-6.87,6.9,2.94,6.9,6.87,6.9,6.87-2.98,6.87-6.9Z"/>
      <path d="M779.88,240.14c0-4.97,3.8-8.74,8.83-8.74s8.8,3.76,8.8,8.74-3.8,8.74-8.8,8.74-8.83-3.76-8.83-8.74ZM795.55,240.14c0-3.93-2.91-6.9-6.84-6.9s-6.87,2.98-6.87,6.9,2.94,6.9,6.87,6.9,6.84-2.98,6.84-6.9Z"/>
      <path d="M798.89,231.8h2.16l5.17,14.46,5.3-14.46h2l5.27,14.43,5.17-14.43h2.09l-6.25,16.69h-2.03l-5.3-14.5-5.3,14.5h-2.03l-6.25-16.69Z"/>
      <path d="M827.43,240.14c0-4.97,3.8-8.74,8.8-8.74s8.83,3.76,8.83,8.74c0,.26-.03.56-.07.79h-15.57c.36,3.6,3.17,6.18,6.94,6.18,2.81,0,5.24-1.44,6.28-3.6h2.13c-1.28,3.21-4.55,5.37-8.44,5.37-5.1,0-8.9-3.76-8.9-8.74ZM829.42,239.23h13.64c-.33-3.34-3.08-6.05-6.84-6.05s-6.38,2.52-6.81,6.05Z"/>
      <path d="M849.05,231.8h1.9v3.63c1.24-2.42,3.53-3.89,6.48-3.89h.43v1.96h-.43c-3.96,0-6.48,2.49-6.48,6.35v8.64h-1.9v-16.69Z"/>
      <path d="M858.97,240.14c0-4.97,3.8-8.74,8.8-8.74s8.83,3.76,8.83,8.74c0,.26-.03.56-.07.79h-15.57c.36,3.6,3.17,6.18,6.94,6.18,2.81,0,5.24-1.44,6.28-3.6h2.13c-1.28,3.21-4.55,5.37-8.44,5.37-5.1,0-8.9-3.76-8.9-8.74ZM860.97,239.23h13.64c-.33-3.34-3.08-6.05-6.84-6.05s-6.38,2.52-6.81,6.05Z"/>
      <path d="M879.55,240.14c0-4.97,3.63-8.74,8.47-8.74,3.21,0,5.79,1.64,7.2,4.22v-10.7h1.9v23.56h-1.9v-3.83c-1.41,2.58-3.99,4.22-7.2,4.22-4.84,0-8.47-3.76-8.47-8.74ZM895.22,240.14c0-3.93-2.95-6.9-6.87-6.9s-6.84,2.98-6.84,6.9,2.94,6.9,6.84,6.9,6.87-2.98,6.87-6.9Z"/>
      <path d="M910.93,224.93h1.9v10.7c1.41-2.58,4.02-4.22,7.2-4.22,4.88,0,8.51,3.76,8.51,8.74s-3.63,8.74-8.51,8.74c-3.17,0-5.79-1.64-7.2-4.22v3.83h-1.9v-23.56ZM926.57,240.14c0-3.93-2.95-6.9-6.87-6.9s-6.87,2.98-6.87,6.9,2.94,6.9,6.87,6.9,6.87-2.98,6.87-6.9Z"/>
      <path d="M937.34,248.49l-7.56-16.69h2.19l6.45,14.5,6.45-14.5h2.13l-10.41,22.9h-2.06l2.81-6.22Z"/>
    </g>
  </g>
  <rect class="m" x="98.42" y="72.96" width="15.95" height="15.95"/>
</svg>