<?xml version="1.0" encoding="UTF-8"?>
<svg id="d" data-name="horizontal" xmlns="http://www.w3.org/2000/svg" viewBox="0 0 1058.68 238.41">
  <defs>
    <style>
      .m {
        fill: #ee3d3a;
      }
    </style>
  </defs>
  <g id="f" data-name="standard">
    <g id="g" data-name="horizontal-dark">
      <g>
        <path d="M100.25,88.15h15.86l-15.86,69.49h-15.86l15.86-69.49Z"/>
        <path d="M123.03,88.03h15.11v12.21h.63c3.65-8.06,10.7-14.1,21.4-14.1,17.25,0,25.18,11.96,25.18,27.57v44.06h-15.36v-40.03c0-9.57-4.53-17.12-14.6-17.12-11.08,0-16.74,8.94-16.74,18.51v38.65h-15.61v-69.74Z"/>
        <path d="M191.26,88.03h16.62l17.12,47.46,17.25-47.33h16.62l-25.43,69.61h-16.87l-25.3-69.74Z"/>
        <path d="M260.62,122.64c0-20.39,16.62-36.38,37.89-36.38s37.89,15.99,37.89,36.88c0,1.13-.13,3.15-.5,5.04h-58.41c1.76,9.57,10.7,16.74,21.27,16.74,8.31,0,15.23-3.9,18.51-10.95h17.37c-4.91,14.98-18.76,25.68-36.13,25.68-21.27,0-37.89-16.62-37.89-37.01ZM318.91,116.22c-1.38-8.31-9.57-15.23-20.65-15.23s-19.39,6.42-20.52,15.23h41.16Z"/>
        <path d="M342.95,137.37h15.74c.13,4.53,4.66,7.8,10.45,7.8,6.17,0,10.07-3.02,10.07-7.55,0-5.79-6.17-7.05-12.46-8.69-13.09-3.27-22.41-8.69-22.41-21.4,0-11.96,10.83-21.27,25.05-21.27s25.05,9.44,25.05,21.78l-15.74-.13c0-4.66-4.41-7.3-9.32-7.3s-9.32,2.52-9.32,6.8c0,5.16,6.04,6.42,12.34,8.06,9.32,2.39,22.16,5.54,22.16,21.9,0,12.34-11.58,22.28-25.68,22.28-14.85,0-25.93-10.07-25.93-22.28Z"/>
        <path d="M411.18,102.88h-10.7v-14.73h10.7v-19.64h15.74v19.64h11.08v14.73h-11.08v40.16h10.7v14.73h-26.44v-54.89Z"/>
        <rect class="m" x="83.67" y="60.79" width="16.49" height="16.49"/>
      </g>
      <path d="M472.88,123.08c0-20.49,16.59-36.58,36.95-36.58s36.95,16.09,36.95,36.58-16.59,36.58-36.95,36.58-36.95-16.59-36.95-36.58ZM531.2,123.08c0-13.45-9.55-21.75-21.37-21.75s-21.12,8.3-21.12,21.75,9.43,21.75,21.12,21.75,21.37-8.8,21.37-21.75Z"/>
      <path d="M577.08,83.48v16.09h16.59v14.83h-16.59v43.36h-15.71v-43.36h-10.43v-14.83h10.43v-30.92h33.69v14.83h-17.97Z"/>
      <path d="M625.97,83.48v16.09h16.59v14.83h-16.59v43.36h-15.71v-43.36h-10.43v-14.83h10.43v-30.92h33.69v14.83h-17.97Z"/>
      <path d="M650.36,116.79h41.61v13.95h-41.61v-13.95Z"/>
      <path d="M704.15,88.26h15.46v14.08h.5c4.27-9.68,15.08-15.96,27.02-15.96,18.85,0,33.43,16.34,33.43,36.7s-14.58,36.7-33.43,36.7c-11.44,0-20.61-4.9-26.65-15.33h-.5v33.18h-15.84v-89.37ZM767.36,123.08c0-13.32-9.68-21.87-21.37-21.87s-21.12,8.55-21.12,21.87,9.55,21.87,21.12,21.87,21.37-8.55,21.37-21.87Z"/>
      <path d="M792.26,68.65h15.59v89.12h-15.59v-89.12Z"/>
      <path d="M819.41,122.95c0-20.36,14.58-36.7,34.31-36.7,12.32,0,21.87,6.66,26.27,15.84h.5v-13.83h15.33v69.51h-15.33v-13.57h-.5c-6.03,10.94-15.08,15.46-26.27,15.46-19.73,0-34.31-16.34-34.31-36.7ZM875.24,122.95c0-12.57-8.67-21.87-21.24-21.87s-20.99,9.3-20.99,21.87,8.55,21.87,20.99,21.87,21.24-9.43,21.24-21.87Z"/>
      <path d="M912.8,88.13h15.08v12.19h.63c3.64-8.04,10.68-14.08,21.37-14.08,17.22,0,25.14,11.94,25.14,27.53v43.99h-15.33v-39.97c0-9.55-4.52-17.09-14.58-17.09-11.06,0-16.72,8.92-16.72,18.48v38.59h-15.59v-69.63Z"/>
    </g>
  </g>
</svg>